# File produced by Open Asset Import Library (http://www.assimp.sf.net)
# (assimp v3.1.68452469)

mtllib WallMesh.mtl

# 96 vertex positions
v  24.5 285 100
v  -24.5 285 100
v  -25 285.5 100
v  -25 354.5 100
v  -24.5 355 100
v  24.5 355 100
v  25 354.5 100
v  25 285.5 100
v  -24.5 285 300
v  24.5 285 300
v  25 285.5 300
v  25 354.5 300
v  24.5 355 300
v  -24.5 355 300
v  -25 354.5 300
v  -25 285.5 300
v  25 5 100
v  -25 5 100
v  -25 74.5 100
v  -24.5 75 100
v  24.5 75 100
v  25 74.5 100
v  -25 75.5 100
v  -25 144.5 100
v  -24.5 145 100
v  24.5 145 100
v  25 144.5 100
v  25 75.5 100
v  -25 145.5 100
v  -25 214.5 100
v  -24.5 215 100
v  24.5 215 100
v  25 214.5 100
v  25 145.5 100
v  -25 215.5 100
v  -25 284.5 100
v  25 284.5 100
v  25 215.5 100
v  -25 5 300
v  25 5 300
v  25 74.5 300
v  24.5 75 300
v  -24.5 75 300
v  -25 74.5 300
v  25 75.5 300
v  25 144.5 300
v  24.5 145 300
v  -24.5 145 300
v  -25 144.5 300
v  -25 75.5 300
v  25 145.5 300
v  25 214.5 300
v  24.5 215 300
v  -24.5 215 300
v  -25 214.5 300
v  -25 145.5 300
v  25 215.5 300
v  25 284.5 300
v  -25 284.5 300
v  -25 215.5 300
v  23.5 74.9691 300
v  23.5 75.0309 300
v  23.5 144.918 300
v  23.5 145.082 300
v  23.5 145.082 100
v  23.5 144.918 100
v  23.5 75.0309 100
v  23.5 74.9691 100
v  23.5 214.953 300
v  23.5 215.047 300
v  23.5 215.047 100
v  23.5 214.953 100
v  23.5 284.958 300
v  23.5 285.042 300
v  23.5 285.042 100
v  23.5 284.958 100
v  -23.5 74.9636 100
v  -23.5 75.0364 100
v  -23.5 144.958 100
v  -23.5 145.042 100
v  -23.5 145.042 300
v  -23.5 144.958 300
v  -23.5 75.0364 300
v  -23.5 74.9636 300
v  -23.5 214.975 100
v  -23.5 215.025 100
v  -23.5 215.025 300
v  -23.5 214.975 300
v  -23.5 284.945 100
v  -23.5 285.055 100
v  -23.5 285.055 300
v  -23.5 284.945 300
v  -25 -10 300
v  -25 -10 100
v  25 -10 100
v  25 -10 300

# 264 UV coordinates
vt 0.119396 0.862153 0
vt 0.210816 0.862153 0
vt 0.211749 0.863078 0
vt 0.211749 0.990752 0
vt 0.210816 0.991677 0
vt 0.119396 0.991677 0
vt 0.118463 0.990752 0
vt 0.118463 0.863078 0
vt 0.00932498 0.862153 0
vt 0.100746 0.862153 0
vt 0.101678 0.863078 0
vt 0.101678 0.990752 0
vt 0.100746 0.991677 0
vt 0.00932498 0.991677 0
vt 0.00839212 0.990752 0
vt 0.00839212 0.863078 0
vt 0.118463 0.344054 0
vt 0.211749 0.344054 0
vt 0.211749 0.472654 0
vt 0.210816 0.473579 0
vt 0.119396 0.473579 0
vt 0.118463 0.472654 0
vt 0.211749 0.474504 0
vt 0.211749 0.602178 0
vt 0.210816 0.603103 0
vt 0.119396 0.603103 0
vt 0.118463 0.602178 0
vt 0.118463 0.474504 0
vt 0.211749 0.604029 0
vt 0.211749 0.731703 0
vt 0.210816 0.732628 0
vt 0.119396 0.732628 0
vt 0.118463 0.731703 0
vt 0.118463 0.604029 0
vt 0.211749 0.733553 0
vt 0.211749 0.861227 0
vt 0.118463 0.861227 0
vt 0.118463 0.733553 0
vt 0.00839212 0.344054 0
vt 0.101678 0.344054 0
vt 0.101678 0.472654 0
vt 0.100746 0.473579 0
vt 0.00932498 0.473579 0
vt 0.00839212 0.472654 0
vt 0.101678 0.474504 0
vt 0.101678 0.602178 0
vt 0.100746 0.603103 0
vt 0.00932498 0.603103 0
vt 0.00839212 0.602178 0
vt 0.00839212 0.474504 0
vt 0.101678 0.604029 0
vt 0.101678 0.731703 0
vt 0.100746 0.732628 0
vt 0.00932498 0.732628 0
vt 0.00839212 0.731703 0
vt 0.00839212 0.604029 0
vt 0.101678 0.733553 0
vt 0.101678 0.861227 0
vt 0.00839212 0.861227 0
vt 0.00839212 0.733553 0
vt 0.00963594 0.299056 0
vt 0.00839212 0.297803 0
vt 0.0111907 0.298671 0
vt 0.0111907 0.298785 0
vt 0.00839212 0.299653 0
vt 0.0475578 0.297803 0
vt 0.0488016 0.298369 0
vt 0.0503564 0.29888 0
vt 0.0475578 0.299653 0
vt 0.0484906 0.298728 0
vt 0.0295297 0.298369 0
vt 0.0307735 0.299653 0
vt 0.0279749 0.29888 0
vt 0.0279749 0.298576 0
vt 0.0307735 0.297803 0
vt 0.0699392 0.299653 0
vt 0.0686954 0.299056 0
vt 0.0671406 0.298671 0
vt 0.0699392 0.297803 0
vt 0.0690063 0.298728 0
vt 0.0867234 0.297803 0
vt 0.0879672 0.298391 0
vt 0.089522 0.298815 0
vt 0.0867234 0.299653 0
vt 0.0876563 0.298728 0
vt 0.107861 0.298391 0
vt 0.109105 0.299653 0
vt 0.106306 0.298815 0
vt 0.106306 0.298641 0
vt 0.109105 0.297803 0
vt 0.125889 0.297803 0
vt 0.127133 0.298393 0
vt 0.128688 0.298807 0
vt 0.125889 0.299653 0
vt 0.126822 0.298728 0
vt 0.147027 0.298393 0
vt 0.14827 0.299653 0
vt 0.145472 0.298807 0
vt 0.145472 0.29865 0
vt 0.14827 0.297803 0
vt 0.166299 0.299059 0
vt 0.165055 0.297803 0
vt 0.167853 0.298661 0
vt 0.167853 0.298795 0
vt 0.165055 0.299653 0
vt 0.20422 0.297803 0
vt 0.205464 0.298394 0
vt 0.207019 0.298805 0
vt 0.20422 0.299653 0
vt 0.205153 0.298728 0
vt 0.185259 0.298728 0
vt 0.187436 0.299653 0
vt 0.184638 0.298805 0
vt 0.184638 0.298651 0
vt 0.187436 0.297803 0
vt 0.0111907 0.281157 0
vt 0.00994689 0.280563 0
vt 0.00839212 0.280164 0
vt 0.0111907 0.279307 0
vt 0.0102578 0.280232 0
vt 0.0279749 0.279307 0
vt 0.0292188 0.279908 0
vt 0.0307735 0.280277 0
vt 0.0279749 0.281157 0
vt 0.0289078 0.280232 0
vt 0.0491125 0.279908 0
vt 0.0503564 0.281157 0
vt 0.0475578 0.280277 0
vt 0.0475578 0.280186 0
vt 0.0503564 0.279307 0
vt 0.0671406 0.279307 0
vt 0.0683844 0.27989 0
vt 0.0699392 0.280333 0
vt 0.0671406 0.281157 0
vt 0.0680735 0.280232 0
vt 0.0882782 0.27989 0
vt 0.089522 0.281157 0
vt 0.0867234 0.280333 0
vt 0.0867234 0.280131 0
vt 0.089522 0.279307 0
vt 0.228533 0.689219 0
vt 0.601678 0.689219 0
vt 0.601678 0.817819 0
vt 0.228533 0.817819 0
vt 0.228533 0.0798938 0
vt 0.601678 0.0798938 0
vt 0.601678 0.207568 0
vt 0.228533 0.207568 0
vt 0.618463 0.573678 0
vt 0.991608 0.573678 0
vt 0.991608 0.701352 0
vt 0.618463 0.701352 0
vt 0.618463 0.718836 0
vt 0.991608 0.718836 0
vt 0.991608 0.84651 0
vt 0.618463 0.84651 0
vt 0.618463 0.864003 0
vt 0.991608 0.864003 0
vt 0.991608 0.991677 0
vt 0.618463 0.991677 0
vt 0.228533 0.86222 0
vt 0.601678 0.86222 0
vt 0.601678 0.990819 0
vt 0.228533 0.990819 0
vt 0.228533 0.516296 0
vt 0.601678 0.516296 0
vt 0.601678 0.64397 0
vt 0.228533 0.64397 0
vt 0.228533 0.224214 0
vt 0.601678 0.224214 0
vt 0.601678 0.351888 0
vt 0.228533 0.351888 0
vt 0.228533 0.370294 0
vt 0.601678 0.370294 0
vt 0.601678 0.497968 0
vt 0.228533 0.497968 0
vt 0.618463 0.428585 0
vt 0.991608 0.428585 0
vt 0.991608 0.556259 0
vt 0.618463 0.556259 0
vt 0.618463 0.320346 0
vt 0.991608 0.320346 0
vt 0.991608 0.411013 0
vt 0.618463 0.411013 0
vt 0.618463 0.210258 0
vt 0.991608 0.210258 0
vt 0.991608 0.302775 0
vt 0.618463 0.302775 0
vt 0.618463 0.319421 0
vt 0.991608 0.319421 0
vt 0.991608 0.411939 0
vt 0.618463 0.411939 0
vt 0.618463 0.0966738 0
vt 0.991608 0.0966738 0
vt 0.991608 0.0975419 0
vt 0.618463 0.0975419 0
vt 0.228533 0.0613029 0
vt 0.601678 0.0613029 0
vt 0.601678 0.0620763 0
vt 0.228533 0.0620763 0
vt 0.228533 0.0259726 0
vt 0.601678 0.0259726 0
vt 0.601678 0.0268106 0
vt 0.228533 0.0268106 0
vt 0.228533 0.00832295 0
vt 0.601678 0.00832295 0
vt 0.601678 0.00916958 0
vt 0.228533 0.00916958 0
vt 0.228533 0.515438 0
vt 0.601678 0.515438 0
vt 0.991608 0.0800279 0
vt 0.618463 0.0800279 0
vt 0.618463 0.0791798 0
vt 0.991608 0.0791798 0
vt 0.228533 0.369414 0
vt 0.601678 0.369414 0
vt 0.601678 0.044657 0
vt 0.228533 0.044657 0
vt 0.228533 0.0438328 0
vt 0.601678 0.0438328 0
vt 0.991608 0.0976561 0
vt 0.618463 0.0976561 0
vt 0.228533 0.0790259 0
vt 0.601678 0.0790259 0
vt 0.601678 0.06238 0
vt 0.228533 0.06238 0
vt 0.618463 0.572905 0
vt 0.991608 0.572905 0
vt 0.601678 0.0269849 0
vt 0.228533 0.0269849 0
vt 0.618463 0.717998 0
vt 0.991608 0.717998 0
vt 0.601678 0.0093267 0
vt 0.228533 0.0093267 0
vt 0.618463 0.863156 0
vt 0.991608 0.863156 0
vt 0.991608 0.114437 0
vt 0.618463 0.114437 0
vt 0.618463 0.114302 0
vt 0.991608 0.114302 0
vt 0.601678 0.991677 0
vt 0.228533 0.991677 0
vt 0.618463 0.0790259 0
vt 0.991608 0.0790259 0
vt 0.601678 0.644818 0
vt 0.228533 0.644818 0
vt 0.991608 0.131173 0
vt 0.618463 0.131173 0
vt 0.618463 0.131083 0
vt 0.991608 0.131083 0
vt 0.601678 0.352768 0
vt 0.228533 0.352768 0
vt 0.228533 0.043631 0
vt 0.601678 0.043631 0
vt 0.601678 0.498792 0
vt 0.228533 0.498792 0
vt 0.00839212 0.316299 0
vt 0.101678 0.316299 0
vt 0.228533 0.661464 0
vt 0.601678 0.661464 0
vt 0.118463 0.316299 0
vt 0.211749 0.316299 0
vt 0.228533 0.834465 0
vt 0.601678 0.834465 0

# 25 vertex normals
vn 0 0 -1
vn 0 0 1
vn 0 0 0
vn 1 0 0
vn -1 0 -0
vn 0 1 0
vn 0 -1 0
vn 0.707107 0.707107 0
vn -0.707107 0.707107 0
vn 0.298492 0.954412 0
vn 0.26842 0.963302 0
vn 0.289034 0.957319 0
vn 0.291762 0.956491 0
vn -0.295303 -0.955404 0
vn -0.29226 -0.956339 0
vn -0.30216 -0.953257 0
vn -0.28467 -0.958626 0
vn 0.298492 -0.954412 0
vn 0.26842 -0.963302 0
vn 0.289034 -0.957319 0
vn 0.291762 -0.956491 0
vn -0.295303 0.955404 0
vn -0.29226 0.956339 0
vn -0.30216 0.953257 0
vn -0.28467 0.958626 0

# Mesh 'Wall01_Wall01' with 188 faces
g Wall01_Wall01
usemtl Wall01.1
f  1/1/1 2/2/1 3/3/1
f  1/1/1 3/3/1 4/4/1
f  1/1/1 4/4/1 5/5/1
f  1/1/1 5/5/1 6/6/1
f  1/1/1 6/6/1 7/7/1
f  7/7/1 8/8/1 1/1/1
f  9/9/2 10/10/2 11/11/2
f  9/9/2 11/11/2 12/12/2
f  9/9/2 12/12/2 13/13/2
f  9/9/2 13/13/2 14/14/2
f  9/9/2 14/14/2 15/15/2
f  15/15/2 16/16/2 9/9/2
f  17/17/1 18/18/1 19/19/1
f  17/17/1 19/19/1 20/20/1
f  17/17/1 20/20/1 21/21/1
f  21/21/1 22/22/1 17/17/1
f  21/21/1 20/20/1 23/23/1
f  21/21/1 23/23/1 24/24/1
f  21/21/1 24/24/1 25/25/1
f  21/21/1 25/25/1 26/26/1
f  21/21/1 26/26/1 27/27/1
f  27/27/1 28/28/1 21/21/1
f  26/26/1 25/25/1 29/29/1
f  26/26/1 29/29/1 30/30/1
f  26/26/1 30/30/1 31/31/1
f  26/26/1 31/31/1 32/32/1
f  26/26/1 32/32/1 33/33/1
f  33/33/1 34/34/1 26/26/1
f  32/32/1 31/31/1 35/35/1
f  32/32/1 35/35/1 36/36/1
f  32/32/1 36/36/1 2/2/1
f  32/32/1 2/2/1 1/1/1
f  32/32/1 1/1/1 37/37/1
f  37/37/1 38/38/1 32/32/1
f  39/39/2 40/40/2 41/41/2
f  39/39/2 41/41/2 42/42/2
f  39/39/2 42/42/2 43/43/2
f  43/43/2 44/44/2 39/39/2
f  43/43/2 42/42/2 45/45/2
f  43/43/2 45/45/2 46/46/2
f  43/43/2 46/46/2 47/47/2
f  43/43/2 47/47/2 48/48/2
f  43/43/2 48/48/2 49/49/2
f  49/49/2 50/50/2 43/43/2
f  48/48/2 47/47/2 51/51/2
f  48/48/2 51/51/2 52/52/2
f  48/48/2 52/52/2 53/53/2
f  48/48/2 53/53/2 54/54/2
f  48/48/2 54/54/2 55/55/2
f  55/55/2 56/56/2 48/48/2
f  54/54/2 53/53/2 57/57/2
f  54/54/2 57/57/2 58/58/2
f  54/54/2 58/58/2 10/10/2
f  54/54/2 10/10/2 9/9/2
f  54/54/2 9/9/2 59/59/2
f  59/59/2 60/60/2 54/54/2
f  42/61/3 41/62/1 61/63/1
f  42/61/3 61/63/1 62/64/1
f  42/61/3 62/64/1 45/65/1
f  46/66/1 63/67/3 64/68/1
f  64/68/1 51/69/1 47/70/1
f  64/68/1 47/70/1 46/66/1
f  26/71/3 34/72/2 65/73/2
f  26/71/3 65/73/2 66/74/2
f  26/71/3 66/74/2 27/75/2
f  28/76/2 67/77/3 68/78/2
f  68/78/2 22/79/2 21/80/2
f  68/78/2 21/80/2 28/76/2
f  52/81/1 69/82/3 70/83/1
f  70/83/1 57/84/1 53/85/1
f  70/83/1 53/85/1 52/81/1
f  32/86/3 38/87/2 71/88/2
f  32/86/3 71/88/2 72/89/2
f  32/86/3 72/89/2 33/90/2
f  58/91/1 73/92/3 74/93/1
f  74/93/1 11/94/1 10/95/1
f  74/93/1 10/95/1 58/91/1
f  1/96/3 8/97/2 75/98/2
f  1/96/3 75/98/2 76/99/2
f  1/96/3 76/99/2 37/100/2
f  20/101/3 19/102/2 77/103/2
f  20/101/3 77/103/2 78/104/2
f  20/101/3 78/104/2 23/105/2
f  24/106/2 79/107/3 80/108/2
f  80/108/2 29/109/2 25/110/2
f  80/108/2 25/110/2 24/106/2
f  48/111/3 56/112/1 81/113/1
f  48/111/3 81/113/1 82/114/1
f  48/111/3 82/114/1 49/115/1
f  50/116/1 83/117/3 84/118/1
f  84/118/1 44/119/1 43/120/1
f  84/118/1 43/120/1 50/116/1
f  30/121/2 85/122/3 86/123/2
f  86/123/2 35/124/2 31/125/2
f  86/123/2 31/125/2 30/121/2
f  54/126/3 60/127/1 87/128/1
f  54/126/3 87/128/1 88/129/1
f  54/126/3 88/129/1 55/130/1
f  36/131/2 89/132/3 90/133/2
f  90/133/2 3/134/2 2/135/2
f  90/133/2 2/135/2 36/131/2
f  9/136/3 16/137/1 91/138/1
f  9/136/3 91/138/1 92/139/1
f  9/136/3 92/139/1 59/140/1
f  40/141/4 17/142/4 22/143/4
f  22/143/4 41/144/4 40/141/4
f  45/145/4 28/146/4 27/147/4
f  27/147/4 46/148/4 45/145/4
f  51/149/4 34/150/4 33/151/4
f  33/151/4 52/152/4 51/149/4
f  57/153/4 38/154/4 37/155/4
f  37/155/4 58/156/4 57/153/4
f  11/157/4 8/158/4 7/159/4
f  7/159/4 12/160/4 11/157/4
f  18/161/5 39/162/5 44/163/5
f  44/163/5 19/164/5 18/161/5
f  23/165/5 50/166/5 49/167/5
f  49/167/5 24/168/5 23/165/5
f  29/169/5 56/170/5 55/171/5
f  55/171/5 30/172/5 29/169/5
f  35/173/5 60/174/5 59/175/5
f  59/175/5 36/176/5 35/173/5
f  3/177/5 16/178/5 15/179/5
f  15/179/5 4/180/5 3/177/5
f  13/181/6 6/182/6 5/183/6
f  5/183/6 14/184/6 13/181/6
f  93/185/7 94/186/7 95/187/7
f  95/187/7 96/188/7 93/185/7
f  12/189/8 7/190/8 6/182/8
f  6/182/8 13/181/8 12/189/8
f  14/184/9 5/183/9 4/191/9
f  4/191/9 15/192/9 14/184/9
f  41/193/10 22/194/10 68/195/10
f  68/195/10 61/196/10 41/193/10
f  46/197/11 27/198/11 66/199/11
f  66/199/11 63/200/11 46/197/11
f  52/201/12 33/202/12 72/203/12
f  72/203/12 69/204/12 52/201/12
f  58/205/13 37/206/13 76/207/13
f  76/207/13 73/208/13 58/205/13
f  50/166/14 23/165/14 78/209/14
f  78/209/14 83/210/14 50/166/14
f  56/211/15 29/212/15 80/213/15
f  80/213/15 81/214/15 56/211/15
f  60/174/16 35/173/16 86/215/16
f  86/215/16 87/216/16 60/174/16
f  16/217/17 3/218/17 90/219/17
f  90/219/17 91/220/17 16/217/17
f  61/196/4 68/195/4 67/221/4
f  67/221/4 62/222/4 61/196/4
f  62/223/18 67/224/18 28/146/18
f  28/146/18 45/145/18 62/223/18
f  63/200/4 66/199/4 65/225/4
f  65/225/4 64/226/4 63/200/4
f  64/227/19 65/228/19 34/150/19
f  34/150/19 51/149/19 64/227/19
f  69/204/4 72/203/4 71/229/4
f  71/229/4 70/230/4 69/204/4
f  70/231/20 71/232/20 38/154/20
f  38/154/20 57/153/20 70/231/20
f  73/208/4 76/207/4 75/233/4
f  75/233/4 74/234/4 73/208/4
f  74/235/21 75/236/21 8/158/21
f  8/158/21 11/157/21 74/235/21
f  83/237/5 78/238/5 77/239/5
f  77/239/5 84/240/5 83/237/5
f  84/241/22 77/242/22 19/164/22
f  19/164/22 44/163/22 84/241/22
f  81/214/5 80/213/5 79/243/5
f  79/243/5 82/244/5 81/214/5
f  82/245/23 79/246/23 24/168/23
f  24/168/23 49/167/23 82/245/23
f  87/247/5 86/248/5 85/249/5
f  85/249/5 88/250/5 87/247/5
f  88/251/24 85/252/24 30/172/24
f  30/172/24 55/171/24 88/251/24
f  91/220/5 90/219/5 89/253/5
f  89/253/5 92/254/5 91/220/5
f  92/255/25 89/256/25 36/176/25
f  36/176/25 59/175/25 92/255/25
f  93/257/2 96/258/2 40/40/2
f  40/40/2 39/39/2 93/257/2
f  96/259/4 95/260/4 17/142/4
f  17/142/4 40/141/4 96/259/4
f  95/261/1 94/262/1 18/18/1
f  18/18/1 17/17/1 95/261/1
f  94/263/5 93/264/5 39/162/5
f  39/162/5 18/161/5 94/263/5

