# WaveFront *.obj file (generated by CINEMA 4D)

mtllib ./StairCase.mtl

v -2.5 0 2.5
v -2.5 1.66666662693024 2.5
v -2.5 3.33333325386047 2.5
v -2.5 5 2.5
v -0.83333331346512 0 2.5
v -0.83333331346512 1.66666662693024 2.5
v -0.83333331346512 3.33333325386047 2.5
v -0.83333331346512 5 2.5
v 0.83333331346512 0 2.5
v 0.83333331346512 1.66666662693024 2.5
v 0.83333331346512 3.33333325386047 2.5
v -0.83333331346512 5 -2.5
v 2.5 0 2.5
v 2.5 1.66666662693024 2.5
v -2.5 5 -2.5
v -2.5 1.66666662693024 -2.5
v 2.5 0 -2.5
v 2.5 1.66666662693024 -2.5
v -2.5 3.33333325386047 -2.5
v -2.5 0 -2.5
v 0.83333331346512 0 -2.5
v 0.83333331346512 1.66666662693024 -2.5
v 0.83333331346512 3.33333325386047 -2.5
v -0.83333331346512 3.33333325386047 -2.5
v -0.83333331346512 0 -2.5
v -0.83333331346512 1.66666662693024 -2.5
# 26 vertices

vn 0 0 1
vn 0 -1 0
vn -1 0 0
vn 1 0 0
vn 0 0 -1
vn 0 1 0
# 6 normals

vt 0 0 0
vt 0 0.33333337306976 0
vt 0.33333331346512 0.33333337306976 0
vt 0.33333334326744 0 0
vt 0.66666662693024 0.33333337306976 0
vt 0.66666668653488 0 0
vt 1 0.33333337306976 0
vt 1 0 0
vt 0 0.66666668653488 0
vt 0.33333331346512 0.66666668653488 0
vt 0.66666662693024 0.66666668653488 0
vt 0.66666668653488 1 0
vt 1 1 0
vt 0 1 0
vt 0.33333334326744 1 0
vt 1 0.66666668653488 0
# 16 texture coordinates

o Cube
usemtl default
f 5/4/1 6/3/1 2/2/1 1/1/1
f 9/6/1 10/5/1 6/3/1 5/4/1
f 13/8/1 14/7/1 10/5/1 9/6/1
f 6/3/1 7/10/1 3/9/1 2/2/1
f 10/5/1 11/11/1 7/10/1 6/3/1
f 17/8/2 13/13/2 9/12/2 21/6/2
f 7/10/1 8/15/1 4/14/1 3/9/1
f 1/8/3 2/7/3 16/2/3 20/1/3
f 2/7/3 3/16/3 19/9/3 16/2/3
f 17/8/4 18/7/4 14/2/4 13/1/4
f 21/6/2 9/12/2 5/15/2 25/4/2
f 3/16/3 4/13/3 15/14/3 19/9/3
f 21/4/5 22/3/5 18/2/5 17/1/5
f 25/6/5 26/5/5 22/3/5 21/4/5
f 20/8/5 16/7/5 26/5/5 25/6/5
f 25/4/2 5/15/2 1/14/2 20/1/2
f 26/5/5 24/11/5 23/10/5 22/3/5
f 16/7/5 19/16/5 24/11/5 26/5/5
f 8/4/6 12/15/6 15/14/6 4/1/6
f 19/16/5 15/13/5 12/12/5 24/11/5
f 8/1/4 7/8/4 24/13/4 12/14/4
f 23/1/6 24/8/6 7/13/6 11/14/6
f 11/1/4 10/8/4 22/13/4 23/14/4
f 18/1/6 22/8/6 10/13/6 14/14/6

